<svg id="Calque_1" data-name="Calque 1" xmlns="http://www.w3.org/2000/svg" viewBox="0 0 41.5 49.06"><defs><style>.cls-1,.cls-7{fill:none;stroke:#1f3144;}.cls-1{stroke-linecap:round;stroke-linejoin:round;}.cls-2{fill:#ffcc34;}.cls-3{fill:#feb613;}.cls-4{fill:#1f3144;}.cls-5{fill:#ededed;}.cls-6{fill:#374656;}.cls-7{stroke-miterlimit:10;}.cls-8{fill:#e53b33;}.cls-9{fill:#50d872;}</style></defs><title>icon-idea</title><line class="cls-1" x1="26.54" y1="5.57" x2="25.67" y2="9.49"/><line class="cls-1" x1="15.28" y1="15.3" x2="12.46" y2="12.37"/><path class="cls-2" d="M29.66,28.35A8.52,8.52,0,1,0,16.53,35.5v4A3.71,3.71,0,0,0,19.21,43a2.31,2.31,0,0,0,3.92,0,3.71,3.71,0,0,0,2.68-3.55v-4A8.5,8.5,0,0,0,29.66,28.35Z"/><path class="cls-3" d="M21.14,19.83a8.51,8.51,0,0,1,4.67,15.64C30,20.65,21.14,31.66,21.14,19.83Z"/><path class="cls-4" d="M16.66,34.86l-.14,5.83a3.71,3.71,0,0,0,2.68,3.55,2.31,2.31,0,0,0,3.92,0,3.71,3.71,0,0,0,2.68-3.55l-.6-5.55C23.21,36.38,18.75,36.29,16.66,34.86Z"/><path class="cls-5" d="M25.21,35.15c-1.5,1.23-5.75,1.18-8.07,0-2.35-1.52-4.51-3.82-4.51-6.82a8.47,8.47,0,0,1,1.76-5.17A6.45,6.45,0,0,1,20.33,20c4.58.15,3.66,2.65-.53,3.56-.26.06-1.26-.58-1.78-.58s-.34.87.13,1.42c-2.53,1.48-2.41,6.51-1,8.3C18.72,34.71,23.35,35.23,25.21,35.15Z"/><ellipse class="cls-5" cx="21.22" cy="22.71" rx="3.32" ry="1.57"/><path class="cls-6" d="M17,37.38a4.88,4.88,0,0,0,3,.15,10.25,10.25,0,0,1-2.89-1"/><path class="cls-6" d="M17,39.79A6.65,6.65,0,0,0,21,40a14,14,0,0,1-3.93-1.39"/><path class="cls-6" d="M17,42.36a7.59,7.59,0,0,0,4.63.24A16,16,0,0,1,17.11,41"/><path class="cls-7" d="M29.66,28.35A8.52,8.52,0,1,0,16.53,35.5v5.19a3.71,3.71,0,0,0,2.68,3.55,2.31,2.31,0,0,0,3.92,0,3.71,3.71,0,0,0,2.68-3.55V35.47A8.5,8.5,0,0,0,29.66,28.35Z"/><path class="cls-2" d="M21.16,16.88a1.2,1.2,0,0,1-1.2-1.2V11.8a1.2,1.2,0,1,1,2.41,0v3.87A1.2,1.2,0,0,1,21.16,16.88Z"/><path class="cls-8" d="M12.79,20.72a1.2,1.2,0,0,1-1.7,0L9.85,19.48a1.2,1.2,0,1,1,1.7-1.7L12.79,19A1.2,1.2,0,0,1,12.79,20.72Z"/><path class="cls-8" d="M29.66,20.64a1.2,1.2,0,0,1,0-1.7L32.4,16.2a1.2,1.2,0,0,1,1.7,1.7l-2.74,2.74A1.2,1.2,0,0,1,29.66,20.64Z"/><polygon class="cls-3" points="12.62 9.33 13.71 11.35 15.71 12.46 13.69 13.55 12.58 15.55 11.49 13.54 9.49 12.42 11.51 11.33 12.62 9.33"/><polygon class="cls-9" points="7.2 25.42 3.95 22.42 6.05 23.4 5.96 21.63 9.14 24.78 7.26 23.7 7.2 25.42"/><polygon class="cls-3" points="34.03 24.08 38.17 22.55 36.35 23.97 37.97 24.69 33.71 26.1 35.54 24.91 34.03 24.08"/><polygon class="cls-3" points="28.91 3.93 27.91 5.81 28.09 7.93 26.2 6.94 24.08 7.11 25.08 5.23 24.9 3.1 26.79 4.1 28.91 3.93"/><circle class="cls-9" cx="17.53" cy="5.85" r="1.02"/><circle class="cls-9" cx="28.57" cy="13.44" r="1.02"/></svg>