<svg id="Calque_1" data-name="Calque 1" xmlns="http://www.w3.org/2000/svg" viewBox="0 0 41.5 49.06"><defs><style>.cls-1{fill:#50d872;}.cls-2{fill:#fff;}.cls-3{fill:#36b250;}.cls-4{fill:#1e3144;}.cls-5{fill:#9f1b1f;}.cls-6{fill:none;stroke:#1e3144;stroke-miterlimit:10;}.cls-7{fill:#e53b33;}.cls-8{fill:#ffcc34;}.cls-9{fill:#feb613;}</style></defs><title>icon-question</title><path class="cls-1" d="M32.4,18.82A8.66,8.66,0,0,1,32,21.55,8.76,8.76,0,0,1,31,23.61a7.79,7.79,0,0,1-1.48,1.61A13.62,13.62,0,0,1,28,26.39q-.59.37-1.65,1a5.27,5.27,0,0,0-1.85,1.76,3.67,3.67,0,0,0-.74,1.81,1.41,1.41,0,0,1-.32.88.94.94,0,0,1-.76.42H16.2a.81.81,0,0,1-.69-.5,2,2,0,0,1-.28-1V29.48A6.28,6.28,0,0,1,17,25.26a11.37,11.37,0,0,1,3.86-2.93,6.67,6.67,0,0,0,2.27-1.51,3,3,0,0,0,.67-2.05,2.44,2.44,0,0,0-1.25-2,5,5,0,0,0-2.9-.86,5.1,5.1,0,0,0-2.92.78,18.55,18.55,0,0,0-2.89,3.1,1.05,1.05,0,0,1-.84.43,1.31,1.31,0,0,1-.67-.21L7.89,16.63A1.05,1.05,0,0,1,7.47,16a1.07,1.07,0,0,1,.15-.76A13.79,13.79,0,0,1,20.14,8a12.06,12.06,0,0,1,4.35.84,14.6,14.6,0,0,1,3.94,2.24,11.21,11.21,0,0,1,2.86,3.44A8.85,8.85,0,0,1,32.4,18.82Z"/><path class="cls-2" d="M19.06,24.87C22.51,22.56,23.94,22,24.65,20s-.26-3.83-2.12-3.25a2.44,2.44,0,0,1,1.26,2,3,3,0,0,1-.68,2.05,6.67,6.67,0,0,1-2.27,1.51A11.36,11.36,0,0,0,17,25.26a6.29,6.29,0,0,0-1.76,4.22V30.7a3.38,3.38,0,0,0,.19,1.36c.19.33,1.51.15,1.78.15C17.2,32.21,15.61,27.18,19.06,24.87Z"/><path class="cls-2" d="M7,15.74c0,.27.61.72.85.9L12.31,20a1.31,1.31,0,0,0,.67.21,1.05,1.05,0,0,0,.84-.43l.66-.81L13.1,17.9c-3.4-3.4,0-5.39.94-6.34a.78.78,0,0,1,.62-1.2c.07-.08.16.67.16.67A10.3,10.3,0,0,1,16.7,9.28a9.78,9.78,0,0,1,3.73-1.41C10.26,7.6,7,15.74,7,15.74Z"/><ellipse class="cls-2" cx="19.86" cy="10.78" rx="5.3" ry="1.93"/><path class="cls-3" d="M31.29,14.54c1.19.71,1.11,2.78,1.11,4.28A8.66,8.66,0,0,1,32,21.55,8.76,8.76,0,0,1,31,23.61a7.79,7.79,0,0,1-1.48,1.61A13.62,13.62,0,0,1,28,26.39q-.59.37-1.65,1a5.27,5.27,0,0,0-1.85,1.76,3.67,3.67,0,0,0-.74,1.81,1.41,1.41,0,0,1-.32.88c-.22.28-.32.55-1.4.42.24-6.43,3.38-6.35,6.51-8.92S31.49,18.2,31.29,14.54Z"/><polygon class="cls-4" points="28.52 14.45 33.56 10.12 29.23 15.16 28.52 14.45"/><polygon class="cls-4" points="29.5 24.26 31.26 26.04 28.94 25.09 29.5 24.26"/><polygon class="cls-4" points="19.34 27.17 20.94 29.92 18.56 27.8 19.34 27.17"/><polygon class="cls-4" points="19.77 24.48 18.39 21.09 20.63 23.98 19.77 24.48"/><polygon class="cls-2" points="19.19 24.7 18.53 21.62 20.12 24.33 19.19 24.7"/><polygon class="cls-4" points="24.12 26.34 24.57 23.17 25.12 26.32 24.12 26.34"/><polygon class="cls-4" points="20.05 10.09 21.73 5.19 21.03 10.32 20.05 10.09"/><polygon class="cls-4" points="12.87 6.2 11.9 1.85 14.67 5.34 12.87 6.2"/><polygon class="cls-1" points="27.83 5.29 30.28 3.47 29.49 6.42 27.83 5.29"/><polygon class="cls-1" points="35.99 23.14 38.35 25.07 35.3 25.02 35.99 23.14"/><polygon class="cls-4" points="24.98 16 24.62 11.14 25.97 15.82 24.98 16"/><polygon class="cls-4" points="13.09 14.49 11.61 11.91 13.69 14.04 13.09 14.49"/><polygon class="cls-4" points="18.52 12.45 16.71 13.55 18.02 11.88 18.52 12.45"/><polygon class="cls-4" points="12.82 19.2 9.12 21.23 12.1 18.24 12.82 19.2"/><polygon class="cls-4" points="26.85 20.99 28.86 18.9 27.68 21.55 26.85 20.99"/><polygon class="cls-4" points="32.58 19.04 35.23 20.2 32.34 20.01 32.58 19.04"/><polygon class="cls-4" points="10.64 11.68 6.53 9.95 10.92 10.72 10.64 11.68"/><polygon class="cls-4" points="14.25 30.99 12.31 29.13 14.8 30.16 14.25 30.99"/><polygon class="cls-4" points="24.72 31.24 26.62 31.38 24.81 31.98 24.72 31.24"/><polygon class="cls-4" points="9.26 16.28 4.83 16.93 9.01 15.31 9.26 16.28"/><path class="cls-5" d="M24.68,46.35H14.56a.94.94,0,0,1-1-.75l-.75-6.21a.9.9,0,0,1,1-.92H25.43a.9.9,0,0,1,1,.92l-.75,6.21A.94.94,0,0,1,24.68,46.35Z"/><path class="cls-6" d="M24.68,46.35H14.56a.94.94,0,0,1-1-.75l-.75-6.21a.9.9,0,0,1,1-.92H25.43a.9.9,0,0,1,1,.92l-.75,6.21A.94.94,0,0,1,24.68,46.35Z"/><path class="cls-7" d="M25.51,43.91H13.84A1.09,1.09,0,0,1,12.71,43l-.86-7.16A1,1,0,0,1,13,34.83H26.37a1,1,0,0,1,1.14,1.06L26.64,43A1.09,1.09,0,0,1,25.51,43.91Z"/><path class="cls-5" d="M13,43.88l12.5,0A1.09,1.09,0,0,0,26.66,43l.86-7.16a1,1,0,0,0-1.14-1.06H24.45c-.49,0-.78,5.25-1.77,5.9-.38.25-.85.31-2.33.33.16-.41,1.39-2.75.24-3.7a2.61,2.61,0,0,0-1.24,3.2c-1.73.07-5.35.41-6.63.54C12,41.15,13,43.88,13,43.88Z"/><path class="cls-6" d="M25.46,43.9H13.79A1.09,1.09,0,0,1,12.65,43l-.86-7.16a1,1,0,0,1,1.14-1.06H26.32a1,1,0,0,1,1.14,1.06L26.59,43A1.09,1.09,0,0,1,25.46,43.9Z"/><path class="cls-8" d="M24.16,39.52c0,1.5-.44,2.72-1.95,2.72a2.72,2.72,0,1,1,0-5.43C23.71,36.8,24.16,38,24.16,39.52Z"/><path class="cls-9" d="M24.13,37.6a2.71,2.71,0,0,0-2.43-.75,2.72,2.72,0,0,1,0,5.34,2.71,2.71,0,0,0,2.43-.75S24.16,37.63,24.13,37.6Z"/><path class="cls-9" d="M24.15,39.53c0,1.06,0,1.91,0,1.91-.44,0-1.36-.37-1.36-1.91s.92-1.91,1.36-1.91C24.14,37.62,24.15,38.47,24.15,39.53Z"/><path class="cls-2" d="M24.15,39.53c0,1.06,0,1.91,0,1.91-.24,0-.76-.86-.76-1.91s.51-1.91.76-1.91C24.15,37.62,24.15,38.47,24.15,39.53Z"/><path class="cls-4" d="M20.14,8a12.05,12.05,0,0,1,4.35.84,14.6,14.6,0,0,1,3.94,2.24,11.2,11.2,0,0,1,2.86,3.44,8.85,8.85,0,0,1,1.11,4.28A8.67,8.67,0,0,1,32,21.55,8.77,8.77,0,0,1,31,23.61a7.79,7.79,0,0,1-1.48,1.61A13.62,13.62,0,0,1,28,26.39q-.59.37-1.65,1a5.28,5.28,0,0,0-1.85,1.76,3.67,3.67,0,0,0-.74,1.81,1.41,1.41,0,0,1-.32.88.94.94,0,0,1-.76.42H16.2a.81.81,0,0,1-.69-.5,2,2,0,0,1-.28-1V29.48A6.28,6.28,0,0,1,17,25.26a11.37,11.37,0,0,1,3.86-2.93,6.67,6.67,0,0,0,2.27-1.51,3,3,0,0,0,.67-2.05,2.44,2.44,0,0,0-1.25-2,5,5,0,0,0-2.9-.86,5.1,5.1,0,0,0-2.92.78,18.54,18.54,0,0,0-2.89,3.1,1.05,1.05,0,0,1-.84.43,1.31,1.31,0,0,1-.68-.21L7.89,16.63A1.05,1.05,0,0,1,7.47,16a1.07,1.07,0,0,1,.15-.76A13.79,13.79,0,0,1,20.14,8m0-1A14.79,14.79,0,0,0,6.76,14.69a2.08,2.08,0,0,0-.28,1.44,2.06,2.06,0,0,0,.8,1.3l4.43,3.38,0,0,0,0a2.3,2.3,0,0,0,1.19.36,2,2,0,0,0,1.61-.8,17,17,0,0,1,2.7-2.92,4.15,4.15,0,0,1,2.33-.59,4,4,0,0,1,2.34.69c.82.56.82,1,.82,1.17a2.06,2.06,0,0,1-.43,1.4,5.63,5.63,0,0,1-1.93,1.25,12.41,12.41,0,0,0-4.19,3.18,7.27,7.27,0,0,0-2,4.89V30.7a3,3,0,0,0,.41,1.51,1.77,1.77,0,0,0,1.56,1h6.48a1.9,1.9,0,0,0,1.55-.81,2.38,2.38,0,0,0,.53-1.48,2.76,2.76,0,0,1,.58-1.26,4.26,4.26,0,0,1,1.5-1.43c.71-.4,1.27-.73,1.68-1A14.57,14.57,0,0,0,30.19,26a8.69,8.69,0,0,0,1.67-1.82,10.11,10.11,0,0,0,1.53-5.34,9.88,9.88,0,0,0-1.23-4.76,12.25,12.25,0,0,0-3.12-3.75,15.66,15.66,0,0,0-4.21-2.39,13.1,13.1,0,0,0-4.7-.9Z"/></svg>