<svg id="Calque_1" data-name="Calque 1" xmlns="http://www.w3.org/2000/svg" viewBox="0 0 41.5 49.06"><defs><style>.cls-1{fill:#e53b33;}.cls-2{fill:#feb613;}.cls-3{fill:#ffcc34;}.cls-10,.cls-4{fill:none;}.cls-10,.cls-4,.cls-5,.cls-9{stroke:#1f3144;stroke-miterlimit:10;}.cls-5{fill:#eeeded;}.cls-6{fill:#fff;}.cls-7{fill:#ededed;}.cls-8{fill:#1f3144;}.cls-9{fill:#50d872;}.cls-10{stroke-linecap:round;}</style></defs><title>icon-focus</title><path class="cls-1" d="M12.55,12.12,8.64,8.69A1.94,1.94,0,0,1,9,5.5H9A1.94,1.94,0,0,1,11.84,7Z"/><path class="cls-2" d="M33.52,16.43l4.14-1.11A.69.69,0,0,0,38,14.17l-3-3a.69.69,0,0,0-1.15.31l-1.11,4.14A.69.69,0,0,0,33.52,16.43Z"/><path class="cls-3" d="M34.58,16.11a1,1,0,0,1-1.19-1.19l1-3.62,1.39.49"/><path class="cls-4" d="M33.52,16.43l4.14-1.11A.69.69,0,0,0,38,14.17l-3-3a.69.69,0,0,0-1.15.31l-1.11,4.14A.69.69,0,0,0,33.52,16.43Z"/><circle class="cls-5" cx="19.31" cy="29.57" r="15.62"/><path class="cls-6" d="M31,36.46a13.14,13.14,0,1,1-16.93-20L12,15.13A15.62,15.62,0,1,0,32.41,38.55Z"/><path class="cls-6" d="M22.12,36.26a9,9,0,0,1-9-9c0-2.46.46-4.17,2.06-5.79A9,9,0,1,0,26,35.63,12,12,0,0,1,22.12,36.26Z"/><circle class="cls-4" cx="19.31" cy="29.57" r="9.03"/><path class="cls-7" d="M29.2,18.91l1,1L19,31.07l-1-1L29.2,18.91m0-2-1,1L17,29.06l-1,1,1,1,1,1,1,1,1-1L31.2,20.91l1-1-1-1-1-1-1-1Z"/><path class="cls-1" d="M19.31,13.95A15.62,15.62,0,1,0,34.93,29.57,15.62,15.62,0,0,0,19.31,13.95Zm0,28.35A12.74,12.74,0,1,1,32.05,29.57,12.74,12.74,0,0,1,19.31,42.3Z"/><circle class="cls-4" cx="19.31" cy="29.57" r="15.62"/><rect class="cls-8" x="16.06" y="23.86" width="16.96" height="1.42" transform="translate(-10.19 24.54) rotate(-45)"/><circle class="cls-8" cx="19.31" cy="29.57" r="3.11"/><path class="cls-9" d="M19.32,30.63,24,29.38a.69.69,0,0,0,.31-1.15l-3.41-3.41a.69.69,0,0,0-1.15.31l-1.25,4.66A.69.69,0,0,0,19.32,30.63Z"/><path class="cls-2" d="M30.9,19,35,17.94a.69.69,0,0,0,.31-1.15l-3-3a.69.69,0,0,0-1.15.31L30.06,18.2A.69.69,0,0,0,30.9,19Z"/><path class="cls-3" d="M32,18.72a2.93,2.93,0,0,1-1.47-.07c-.31-.22.16-.71.27-1.13l1-3.67,1.38.55"/><path class="cls-4" d="M30.9,19,35,17.94a.69.69,0,0,0,.31-1.15l-3-3a.69.69,0,0,0-1.15.31L30.06,18.2A.69.69,0,0,0,30.9,19Z"/><line class="cls-10" x1="39.17" y1="12.27" x2="36.84" y2="9.94"/><path class="cls-8" d="M25.31,11.54l-.14-3.76A1.4,1.4,0,0,1,27,6.41h0a1.4,1.4,0,0,1,.62,2.2Z"/><path class="cls-8" d="M22.1,5.9l-.43-2A.77.77,0,0,1,22.56,3h0a.77.77,0,0,1,.54,1.13Z"/><path class="cls-8" d="M12.52,12.17,10.87,9a1.35,1.35,0,0,1,1.07-2h0a1.35,1.35,0,0,1,1.43,1.66Z"/><path class="cls-1" d="M21,22.47l-.31-2.83a1.09,1.09,0,0,1,1.36-1.17h0a1.09,1.09,0,0,1,.61,1.69Z"/></svg>